<svg xmlns="http://www.w3.org/2000/svg" width="2048" height="2048" viewBox="0 0 2048 2048">
  <defs>
    <style>
      .cls-1 {
        fill: #fff;
      }

      .cls-1, .cls-2, .cls-3 {
        fill-rule: evenodd;
      }

      .cls-2 {
        fill: #eadb3a;
      }

      .cls-3 {
        fill: #131313;
        stroke: #000;
        stroke-width: 1px;
      }
    </style>
  </defs>
  <path id="Прямоугольник_2" data-name="Прямоугольник 2" class="cls-1" d="M1024,512h841V1536H1024V512h0Z"/>
  <path id="Прямоугольник_2_копия" data-name="Прямоугольник 2 копия" class="cls-2" d="M183,512h841V1536H183V512h0Z"/>
  <path id="ys" class="cls-3" d="M1023.96,584.867L729.066,1080.79v381.76H477.847V1080.79L183.581,584.867H473.409l130.36,219.11L733.5,584.867H1023.96Zm286.86,560.983q-119.625,0-204.41-82.25t-84.79-198.248q0-115.992,84.79-198.25,84.795-82.22,204.41-82.235h502.45V828.524H1310.82a35.565,35.565,0,0,0-26.58,11.062,33.566,33.566,0,0,0-11.39,25.766q0,14.742,11.39,25.781,10.74,10.453,26.58,10.438h263.87q119.61,0,204.41,82.25t84.8,198.229q0,116.025-84.8,198.25-84.8,82.275-204.41,82.25H1071.62V1218.88h503.07a35.6,35.6,0,0,0,26.58-11.04,33.561,33.561,0,0,0,11.39-25.79q0-14.715-11.39-25.76-10.755-10.425-26.58-10.44H1310.82Z"/>
</svg>
